<?xml version="1.0" encoding="UTF-8" ?>
<!DOCTYPE svg PUBLIC "-//W3C//DTD SVG 1.1//EN" "http://www.w3.org/Graphics/SVG/1.1/DTD/svg11.dtd">
<svg width="640pt" height="640pt" viewBox="0 0 640 640" version="1.1" xmlns="http://www.w3.org/2000/svg">
<g id="#ff5857ff">
<path fill="#ff5857" opacity="1.00" d=" M 0.00 0.00 L 640.00 0.00 L 640.00 640.00 L 0.00 640.00 L 0.00 0.00 M 221.80 47.71 C 209.11 52.06 196.70 57.39 184.99 63.96 C 174.77 69.08 165.00 75.07 155.74 81.78 C 124.95 103.16 98.26 130.37 77.69 161.72 C 64.79 181.31 53.74 202.32 46.69 224.75 C 43.43 232.65 41.27 240.94 39.15 249.20 C 33.06 273.28 30.03 298.15 30.64 322.99 C 30.25 335.36 31.84 347.64 33.06 359.92 C 33.53 362.33 33.36 365.01 34.77 367.14 C 34.97 369.80 35.41 372.44 35.94 375.06 C 43.65 415.27 60.06 453.81 83.88 487.12 C 93.02 500.09 103.11 512.42 114.61 523.38 C 125.42 534.68 137.21 545.04 150.06 553.95 C 213.66 600.99 297.33 619.21 374.81 603.91 C 430.65 593.21 483.11 565.52 523.37 525.37 C 533.14 515.73 542.49 505.63 550.37 494.36 C 559.93 482.19 568.13 468.99 575.41 455.35 C 593.95 420.07 605.76 380.96 607.94 341.09 C 609.38 339.88 608.50 337.67 608.78 336.04 C 611.07 298.26 605.68 259.95 592.84 224.35 C 590.16 213.57 584.37 203.96 580.35 193.67 C 571.14 176.10 561.15 158.83 548.78 143.25 C 540.90 132.29 531.42 122.64 521.95 113.08 C 519.43 108.83 514.27 107.53 511.61 103.43 C 503.62 95.26 494.06 88.93 484.96 82.07 C 478.03 77.97 471.78 72.68 464.28 69.58 C 459.52 67.68 455.74 64.10 451.17 61.88 C 416.63 44.43 378.60 33.73 339.93 31.37 C 300.01 28.73 259.39 33.79 221.80 47.71 Z" />
</g>
<g id="#c2c0c1ff">
<path fill="#c2c0c1" opacity="1.00" d=" M 221.80 47.71 C 259.39 33.79 300.01 28.73 339.93 31.37 C 378.60 33.73 416.63 44.43 451.17 61.88 C 455.74 64.10 459.52 67.68 464.28 69.58 C 471.78 72.68 478.03 77.97 484.96 82.07 C 494.06 88.93 503.62 95.26 511.61 103.43 C 514.27 107.53 519.43 108.83 521.95 113.08 C 531.42 122.64 540.90 132.29 548.78 143.25 C 561.15 158.83 571.14 176.10 580.35 193.67 C 584.37 203.96 590.16 213.57 592.84 224.35 C 605.68 259.95 611.07 298.26 608.78 336.04 C 608.50 337.67 609.38 339.88 607.94 341.09 C 607.54 333.04 608.92 324.92 607.08 316.97 C 606.91 308.94 605.56 301.02 605.03 293.02 C 604.65 286.68 602.31 280.69 601.49 274.42 C 599.91 263.74 596.02 253.58 594.05 242.99 C 593.17 238.14 590.10 234.12 588.52 229.53 C 581.56 210.68 572.91 192.27 560.97 176.02 C 556.86 168.69 552.11 161.73 546.63 155.36 C 543.69 151.33 541.04 147.07 537.30 143.70 C 532.70 137.68 526.76 132.91 521.84 127.17 C 516.34 119.96 508.23 115.48 501.78 109.22 C 495.50 102.99 487.88 98.43 480.80 93.21 C 472.84 88.04 464.93 82.74 456.33 78.67 C 449.75 75.71 443.87 71.37 437.04 68.94 C 429.10 65.97 421.44 62.26 413.37 59.63 C 389.04 51.15 363.49 46.55 337.86 44.41 C 326.22 43.97 314.57 44.01 302.93 44.36 C 281.57 46.05 260.19 49.22 239.73 55.78 C 234.53 57.75 229.20 59.30 223.88 60.90 C 218.48 62.52 213.83 65.96 208.32 67.28 C 197.34 71.42 187.35 77.72 176.79 82.78 C 174.21 84.11 171.90 85.87 169.48 87.46 C 154.26 95.96 140.82 107.27 127.62 118.59 C 116.88 127.18 108.55 138.22 99.28 148.28 C 96.79 150.86 94.84 153.88 92.79 156.80 C 90.22 160.52 86.83 163.60 84.46 167.46 C 78.93 176.58 71.92 184.83 67.55 194.63 C 64.06 201.83 59.81 208.67 57.22 216.28 C 50.87 228.00 47.74 241.03 43.67 253.63 C 42.10 263.24 38.10 272.26 36.86 281.94 C 35.43 292.64 34.47 303.41 33.14 314.12 C 32.25 321.24 33.49 328.45 32.45 335.56 C 30.87 346.19 35.40 356.52 34.77 367.14 C 33.36 365.01 33.53 362.33 33.06 359.92 C 31.84 347.64 30.25 335.36 30.64 322.99 C 30.03 298.15 33.06 273.28 39.15 249.20 C 41.27 240.94 43.43 232.65 46.69 224.75 C 53.74 202.32 64.79 181.31 77.69 161.72 C 98.26 130.37 124.95 103.16 155.74 81.78 C 165.00 75.07 174.77 69.08 184.99 63.96 C 196.70 57.39 209.11 52.06 221.80 47.71 Z" />
</g>
<g id="#fefefeff">
<path fill="#fefefe" opacity="1.00" d=" M 239.73 55.78 C 260.19 49.22 281.57 46.05 302.93 44.36 C 314.57 44.01 326.22 43.97 337.86 44.41 C 363.49 46.55 389.04 51.15 413.37 59.63 C 421.44 62.26 429.10 65.97 437.04 68.94 C 443.87 71.37 449.75 75.71 456.33 78.67 C 464.93 82.74 472.84 88.04 480.80 93.21 C 487.88 98.43 495.50 102.99 501.78 109.22 C 508.23 115.48 516.34 119.96 521.84 127.17 C 526.76 132.91 532.70 137.68 537.30 143.70 C 541.04 147.07 543.69 151.33 546.63 155.36 C 552.11 161.73 556.86 168.69 560.97 176.02 C 572.91 192.27 581.56 210.68 588.52 229.53 C 590.10 234.12 593.17 238.14 594.05 242.99 C 596.02 253.58 599.91 263.74 601.49 274.42 C 602.31 280.69 604.65 286.68 605.03 293.02 C 605.56 301.02 606.91 308.94 607.08 316.97 C 608.92 324.92 607.54 333.04 607.94 341.09 C 605.76 380.96 593.95 420.07 575.41 455.35 C 568.13 468.99 559.93 482.19 550.37 494.36 C 542.49 505.63 533.14 515.73 523.37 525.37 C 483.11 565.52 430.65 593.21 374.81 603.91 C 297.33 619.21 213.66 600.99 150.06 553.95 C 137.21 545.04 125.42 534.68 114.61 523.38 C 103.11 512.42 93.02 500.09 83.88 487.12 C 60.06 453.81 43.65 415.27 35.94 375.06 C 35.41 372.44 34.97 369.80 34.77 367.14 C 35.40 356.52 30.87 346.19 32.45 335.56 C 33.49 328.45 32.25 321.24 33.14 314.12 C 34.47 303.41 35.43 292.64 36.86 281.94 C 38.10 272.26 42.10 263.24 43.67 253.63 C 47.74 241.03 50.87 228.00 57.22 216.28 C 59.81 208.67 64.06 201.83 67.55 194.63 C 71.92 184.83 78.93 176.58 84.46 167.46 C 86.83 163.60 90.22 160.52 92.79 156.80 C 94.84 153.88 96.79 150.86 99.28 148.28 C 108.55 138.22 116.88 127.18 127.62 118.59 C 140.82 107.27 154.26 95.96 169.48 87.46 C 171.90 85.87 174.21 84.11 176.79 82.78 C 187.35 77.72 197.34 71.42 208.32 67.28 C 213.83 65.96 218.48 62.52 223.88 60.90 C 229.20 59.30 234.53 57.75 239.73 55.78 M 209.69 73.71 C 191.09 82.14 173.42 92.71 157.38 105.36 C 153.56 108.23 149.66 111.00 145.91 113.96 C 144.20 115.28 142.84 117.38 143.26 119.63 C 145.93 122.44 149.30 124.47 152.66 126.34 C 170.59 136.58 189.79 144.62 209.68 150.18 C 218.69 152.42 228.08 153.50 237.34 152.38 C 245.04 151.45 252.81 152.19 260.50 152.87 C 286.51 156.51 311.56 166.18 333.59 180.43 C 336.27 182.24 339.20 183.73 342.40 184.36 C 367.50 189.75 392.78 194.26 418.02 198.91 C 439.86 202.98 461.87 206.02 483.92 208.78 C 501.59 210.34 519.21 213.23 537.00 212.74 C 544.33 213.04 551.63 212.06 558.80 210.59 C 561.16 210.01 564.46 208.99 564.37 205.98 C 563.33 201.49 560.42 197.74 558.44 193.64 C 544.95 167.47 526.84 143.72 505.23 123.74 C 502.01 120.89 498.84 117.99 495.90 114.85 C 493.98 116.28 492.55 118.76 489.83 118.59 C 466.43 120.89 443.08 116.58 420.01 113.10 C 377.50 106.24 335.27 97.36 293.95 85.14 C 279.27 80.64 264.41 76.27 250.73 69.16 C 247.63 67.28 243.43 65.42 243.67 61.12 C 232.44 65.59 220.73 68.76 209.69 73.71 M 92.68 174.73 C 79.65 194.78 69.68 216.73 62.40 239.48 C 61.55 242.57 61.59 246.51 64.34 248.68 C 71.53 254.84 80.22 258.90 88.83 262.68 C 92.35 253.26 96.25 243.96 101.13 235.15 C 114.98 209.18 136.80 187.69 162.58 173.58 C 165.11 172.08 167.90 170.97 170.16 169.05 C 154.89 162.02 137.99 157.85 124.22 147.79 C 121.54 146.08 120.03 143.27 118.11 140.85 C 109.48 152.02 100.09 162.67 92.68 174.73 M 378.27 222.10 C 382.08 226.28 384.93 231.20 388.17 235.81 C 399.19 252.68 408.74 270.85 413.50 290.55 C 416.36 301.43 417.62 312.65 418.36 323.86 C 419.30 331.51 418.19 339.28 419.01 346.91 C 457.12 353.27 495.45 358.47 534.01 361.02 C 543.96 361.34 553.95 362.70 563.90 361.39 C 570.84 361.45 577.67 360.00 584.33 358.16 C 588.50 356.79 588.60 351.70 588.79 348.06 C 590.19 333.73 590.15 319.33 589.91 304.95 C 589.10 299.18 589.53 293.32 588.41 287.59 C 585.46 271.02 583.57 253.98 577.18 238.29 C 575.13 240.17 572.74 241.75 569.91 242.06 C 549.62 245.66 528.88 243.83 508.54 241.61 C 464.78 237.62 421.59 229.20 378.27 222.10 M 133.22 246.20 C 129.17 251.84 125.76 258.13 124.03 264.87 C 132.23 268.02 140.35 271.49 148.77 274.01 C 151.33 268.63 153.12 261.64 159.35 259.41 C 166.14 256.76 174.16 261.91 175.04 269.02 C 175.76 275.33 172.92 282.04 167.69 285.72 C 157.64 293.01 146.45 298.50 135.74 304.72 C 126.44 310.11 118.44 317.91 113.45 327.49 C 108.11 338.10 106.47 350.19 106.76 361.96 C 131.77 370.73 157.17 378.36 182.75 385.28 C 186.69 386.26 190.56 387.79 194.64 388.03 C 196.40 374.28 199.60 360.74 201.29 346.99 L 200.76 346.30 C 192.03 343.91 183.31 341.42 174.53 339.21 C 173.69 342.74 172.94 346.30 172.51 349.91 C 169.60 349.84 166.86 348.79 164.09 348.03 C 154.96 345.42 145.88 342.66 136.81 339.84 C 138.38 334.62 143.82 331.47 148.63 329.52 C 162.00 324.05 176.26 321.17 189.64 315.72 C 201.07 310.77 210.05 300.55 213.73 288.68 C 216.58 279.56 214.94 269.57 210.79 261.12 C 206.68 252.66 199.14 246.49 191.21 241.75 C 181.49 236.11 170.24 232.84 158.96 233.23 C 148.94 233.07 139.14 238.15 133.22 246.20 M 291.39 269.40 C 279.32 270.71 267.73 275.64 258.53 283.57 C 244.12 296.04 234.78 314.16 232.90 333.12 C 229.68 354.60 235.04 378.55 250.99 394.03 C 263.00 405.58 279.40 412.05 295.98 412.78 C 313.38 412.81 330.82 405.46 342.14 392.08 C 353.12 378.85 359.44 362.04 361.18 345.02 C 361.48 334.94 361.97 324.63 359.27 314.81 C 355.63 299.00 345.02 284.94 330.72 277.25 C 318.81 270.64 304.88 268.32 291.39 269.40 M 53.23 279.86 C 52.26 291.24 51.43 302.67 49.73 313.98 C 49.60 320.32 49.36 326.70 50.65 332.95 C 50.85 353.22 55.36 373.10 60.23 392.68 C 61.00 395.55 61.72 398.86 64.45 400.55 C 78.97 411.18 96.22 417.15 113.06 422.98 C 110.41 416.35 105.93 410.64 102.62 404.33 C 86.90 378.17 79.18 347.46 79.99 317.00 C 79.57 310.41 81.06 303.89 80.68 297.32 C 74.45 293.87 67.83 291.09 62.01 286.95 C 58.87 284.85 56.42 281.84 53.23 279.86 M 411.35 381.45 C 405.41 396.37 398.38 410.97 389.18 424.19 C 376.90 442.05 360.01 456.27 341.73 467.69 C 336.54 471.01 331.00 473.72 325.81 477.03 C 327.37 478.22 329.42 478.17 331.26 478.59 C 354.80 482.97 378.41 486.96 402.07 490.64 C 426.67 493.80 451.25 497.33 476.00 499.13 C 486.13 499.22 496.26 500.42 506.38 499.46 C 512.97 499.03 520.46 499.19 525.89 494.87 C 538.42 479.07 550.67 462.84 559.71 444.72 C 569.07 427.48 575.76 408.94 580.98 390.08 C 573.60 394.97 564.57 395.61 555.99 396.02 C 547.98 396.04 539.96 396.05 531.94 396.00 C 491.50 393.51 451.38 387.50 411.35 381.45 M 74.02 430.20 C 87.29 460.91 107.04 488.70 130.86 512.13 C 136.50 517.53 141.86 523.49 149.01 526.95 C 164.45 534.11 180.74 539.25 197.09 543.92 C 232.37 554.13 268.26 562.08 304.39 568.62 C 333.38 573.57 362.55 578.79 392.05 578.76 C 397.86 579.01 403.29 576.63 408.64 574.68 C 439.88 564.06 469.11 547.65 494.23 526.25 C 495.94 524.65 498.38 523.48 499.05 521.07 C 493.70 521.75 488.44 523.20 483.00 522.82 C 462.25 523.48 441.57 521.65 421.01 519.03 C 372.64 512.91 324.58 504.50 276.93 494.15 C 273.00 493.06 268.92 493.11 264.90 493.44 C 256.96 494.29 248.97 493.98 241.01 494.07 C 212.37 492.83 184.44 483.06 160.42 467.58 C 156.85 465.48 153.58 462.78 149.54 461.62 C 134.18 456.83 118.93 451.67 103.90 445.94 C 93.42 441.77 83.17 436.83 74.02 430.20 Z" />
<path fill="#fefefe" opacity="1.00" d=" M 300.42 299.53 C 306.73 297.45 313.43 301.95 315.01 308.14 C 317.60 315.60 315.50 323.46 314.75 331.05 C 312.61 344.30 309.67 357.48 305.15 370.14 C 303.21 375.00 300.44 380.06 295.54 382.44 C 291.57 384.01 286.59 383.57 283.43 380.51 C 277.98 376.11 277.73 368.39 278.03 361.95 C 279.35 346.49 282.21 331.06 287.46 316.42 C 290.03 309.81 293.39 302.34 300.42 299.53 Z" />
</g>
<g id="#000000ff">
<path fill="#000000" opacity="1.00" d=" M 209.69 73.71 C 220.73 68.76 232.44 65.59 243.67 61.12 C 243.43 65.42 247.63 67.28 250.73 69.16 C 264.41 76.27 279.27 80.64 293.95 85.14 C 335.27 97.36 377.50 106.24 420.01 113.10 C 443.08 116.58 466.43 120.89 489.83 118.59 C 492.55 118.76 493.98 116.28 495.90 114.85 C 498.84 117.99 502.01 120.89 505.23 123.74 C 526.84 143.72 544.95 167.47 558.44 193.64 C 560.42 197.74 563.33 201.49 564.37 205.98 C 564.46 208.99 561.16 210.01 558.80 210.59 C 551.63 212.06 544.33 213.04 537.00 212.74 C 519.21 213.23 501.59 210.34 483.92 208.78 C 461.87 206.02 439.86 202.98 418.02 198.91 C 392.78 194.26 367.50 189.75 342.40 184.36 C 339.20 183.73 336.27 182.24 333.59 180.43 C 311.56 166.18 286.51 156.51 260.50 152.87 C 252.81 152.19 245.04 151.45 237.34 152.38 C 228.08 153.50 218.69 152.42 209.68 150.18 C 189.79 144.62 170.59 136.58 152.66 126.34 C 149.30 124.47 145.93 122.44 143.26 119.63 C 142.84 117.38 144.20 115.28 145.91 113.96 C 149.66 111.00 153.56 108.23 157.38 105.36 C 173.42 92.71 191.09 82.14 209.69 73.71 Z" />
<path fill="#000000" opacity="1.00" d=" M 92.68 174.73 C 100.09 162.67 109.48 152.02 118.11 140.85 C 120.03 143.27 121.54 146.08 124.22 147.79 C 137.99 157.85 154.89 162.02 170.16 169.05 C 167.90 170.97 165.11 172.08 162.58 173.58 C 136.80 187.69 114.98 209.18 101.13 235.15 C 96.25 243.96 92.35 253.26 88.83 262.68 C 80.22 258.90 71.53 254.84 64.34 248.68 C 61.59 246.51 61.55 242.57 62.40 239.48 C 69.68 216.73 79.65 194.78 92.68 174.73 Z" />
<path fill="#000000" opacity="1.00" d=" M 378.27 222.10 C 421.59 229.20 464.78 237.62 508.54 241.61 C 528.88 243.83 549.62 245.66 569.91 242.06 C 572.74 241.75 575.13 240.17 577.18 238.29 C 583.57 253.98 585.46 271.02 588.41 287.59 C 589.53 293.32 589.10 299.18 589.91 304.95 C 590.15 319.33 590.19 333.73 588.79 348.06 C 588.60 351.70 588.50 356.79 584.33 358.16 C 577.67 360.00 570.84 361.45 563.90 361.39 C 553.95 362.70 543.96 361.34 534.01 361.02 C 495.45 358.47 457.12 353.27 419.01 346.91 C 418.19 339.28 419.30 331.51 418.36 323.86 C 417.62 312.65 416.36 301.43 413.50 290.55 C 408.74 270.85 399.19 252.68 388.17 235.81 C 384.93 231.20 382.08 226.28 378.27 222.10 Z" />
<path fill="#000000" opacity="1.00" d=" M 133.22 246.20 C 139.14 238.15 148.94 233.07 158.96 233.23 C 170.24 232.84 181.49 236.11 191.21 241.75 C 199.14 246.49 206.68 252.66 210.79 261.12 C 214.94 269.57 216.58 279.56 213.73 288.68 C 210.05 300.55 201.07 310.77 189.64 315.72 C 176.26 321.17 162.00 324.05 148.63 329.52 C 143.82 331.47 138.38 334.62 136.81 339.84 C 145.88 342.66 154.96 345.42 164.09 348.03 C 166.86 348.79 169.60 349.84 172.51 349.91 C 172.94 346.30 173.69 342.74 174.53 339.21 C 183.31 341.42 192.03 343.91 200.76 346.30 L 201.29 346.99 C 199.60 360.74 196.40 374.28 194.64 388.03 C 190.56 387.79 186.69 386.26 182.75 385.28 C 157.17 378.36 131.77 370.73 106.76 361.96 C 106.47 350.19 108.11 338.10 113.45 327.49 C 118.44 317.91 126.44 310.11 135.74 304.72 C 146.45 298.50 157.64 293.01 167.69 285.72 C 172.92 282.04 175.76 275.33 175.04 269.02 C 174.16 261.91 166.14 256.76 159.35 259.41 C 153.12 261.64 151.33 268.63 148.77 274.01 C 140.35 271.49 132.23 268.02 124.03 264.87 C 125.76 258.13 129.17 251.84 133.22 246.20 Z" />
<path fill="#000000" opacity="1.00" d=" M 291.39 269.40 C 304.88 268.32 318.81 270.64 330.72 277.25 C 345.02 284.94 355.63 299.00 359.27 314.81 C 361.97 324.63 361.48 334.94 361.18 345.02 C 359.44 362.04 353.12 378.85 342.14 392.08 C 330.82 405.46 313.38 412.81 295.98 412.78 C 279.40 412.05 263.00 405.58 250.99 394.03 C 235.04 378.55 229.68 354.60 232.90 333.12 C 234.78 314.16 244.12 296.04 258.53 283.57 C 267.73 275.64 279.32 270.71 291.39 269.40 M 300.42 299.53 C 293.39 302.34 290.03 309.81 287.46 316.42 C 282.21 331.06 279.35 346.49 278.03 361.95 C 277.73 368.39 277.98 376.11 283.43 380.51 C 286.59 383.57 291.57 384.01 295.54 382.44 C 300.44 380.06 303.21 375.00 305.15 370.14 C 309.67 357.48 312.61 344.30 314.75 331.05 C 315.50 323.46 317.60 315.60 315.01 308.14 C 313.43 301.95 306.73 297.45 300.42 299.53 Z" />
<path fill="#000000" opacity="1.00" d=" M 53.23 279.86 C 56.42 281.84 58.87 284.85 62.01 286.95 C 67.83 291.09 74.45 293.87 80.68 297.32 C 81.06 303.89 79.57 310.41 79.99 317.00 C 79.18 347.46 86.90 378.17 102.62 404.33 C 105.93 410.64 110.41 416.35 113.06 422.98 C 96.22 417.15 78.97 411.18 64.45 400.55 C 61.72 398.86 61.00 395.55 60.23 392.68 C 55.36 373.10 50.85 353.22 50.65 332.95 C 49.36 326.70 49.60 320.32 49.73 313.98 C 51.43 302.67 52.26 291.24 53.23 279.86 Z" />
<path fill="#000000" opacity="1.00" d=" M 411.35 381.45 C 451.38 387.50 491.50 393.51 531.94 396.00 C 539.96 396.05 547.98 396.04 555.99 396.02 C 564.57 395.61 573.60 394.97 580.98 390.08 C 575.76 408.94 569.07 427.48 559.71 444.72 C 550.67 462.84 538.42 479.07 525.89 494.87 C 520.46 499.19 512.97 499.03 506.38 499.46 C 496.26 500.42 486.13 499.22 476.00 499.13 C 451.25 497.33 426.67 493.80 402.07 490.64 C 378.41 486.96 354.80 482.97 331.26 478.59 C 329.42 478.17 327.37 478.22 325.81 477.03 C 331.00 473.72 336.54 471.01 341.73 467.69 C 360.01 456.27 376.90 442.05 389.18 424.19 C 398.38 410.97 405.41 396.37 411.35 381.45 Z" />
<path fill="#000000" opacity="1.00" d=" M 74.02 430.20 C 83.17 436.83 93.42 441.77 103.90 445.94 C 118.93 451.67 134.18 456.83 149.54 461.62 C 153.58 462.78 156.85 465.48 160.42 467.58 C 184.44 483.06 212.37 492.83 241.01 494.07 C 248.97 493.98 256.96 494.29 264.90 493.44 C 268.92 493.11 273.00 493.06 276.93 494.15 C 324.58 504.50 372.64 512.91 421.01 519.03 C 441.57 521.65 462.25 523.48 483.00 522.82 C 488.44 523.20 493.70 521.75 499.05 521.07 C 498.38 523.48 495.94 524.65 494.23 526.25 C 469.11 547.65 439.88 564.06 408.64 574.68 C 403.29 576.63 397.86 579.01 392.05 578.76 C 362.55 578.79 333.38 573.57 304.39 568.62 C 268.26 562.08 232.37 554.13 197.09 543.92 C 180.74 539.25 164.45 534.11 149.01 526.95 C 141.86 523.49 136.50 517.53 130.86 512.13 C 107.04 488.70 87.29 460.91 74.02 430.20 Z" />
</g>
</svg>
